<svg xmlns="http://www.w3.org/2000/svg" viewBox="0 0 28 24"><linearGradient id="a" x1="1" x2="26.68" y1="17.13" y2="17.13" gradientTransform="matrix(1 0 0 -1 0 26)" gradientUnits="userSpaceOnUse"><stop offset="0" stop-color="#f4b01b"/><stop offset=".99" stop-color="#ee4500"/><stop offset="1" stop-color="#ee4500"/></linearGradient><path fill="url(#a)" d="M13.8 1c-.4 0-.7.1-.9.3l-11.5 12c-.3.2-.4.5-.4.9s.2.8.5 1.2c0 0 .2.3.8.9.6.6 1 .4 1.6 0C4.5 15.9 13 10 13 10c.7-.4 1-.4 1.7 0 0 0 8.5 6 9.1 6.4.6.4 1 .6 1.6 0 .6-.6.8-.9.8-.9.6-.6.6-1.6.1-2.1L14.7 1.3c-.2-.2-.5-.3-.9-.3.1 0 .1 0 0 0 .1 0 0 0 0 0"/><linearGradient id="b" x1="3.25" x2="24.43" y1="7.92" y2="7.92" gradientTransform="matrix(1 0 0 -1 0 26)" gradientUnits="userSpaceOnUse"><stop offset="0" stop-color="#f4b01b"/><stop offset=".99" stop-color="#ee4500"/><stop offset="1" stop-color="#ee4500"/></linearGradient><path fill="url(#b)" d="m13.2 13.4-9.6 6.7c-.4.4-.4 1.2.1 1.8 0 0 .2.3.7.8.1.1.5.4 1 .3 2-.7 6.2-2.6 7.6-3.1.4-.1.6-.2.9-.2.3 0 .5.1.9.2 1.4.5 5.6 2.5 7.6 3.1.5.1.9-.2 1-.3.5-.5.7-.8.7-.8.5-.5.5-1.3.1-1.8l-9.6-6.7c-.3-.2-.5-.3-.7-.3-.3.1-.5.1-.7.3"/><linearGradient id="c" x1="3.25" x2="19.93" y1="7.92" y2="7.92" gradientTransform="matrix(1 0 0 -1 0 26)" gradientUnits="userSpaceOnUse"><stop offset="0" stop-color="#ef453c"/><stop offset=".98" stop-color="#f12c22"/><stop offset="1" stop-color="#f12c22"/></linearGradient><path fill="url(#c)" d="m19.9 17.2-5.4-3.8c-.3-.2-.5-.3-.7-.3s-.4.1-.7.3l-9.6 6.7c-.4.4-.4 1.2.1 1.8 0 0 .2.3.7.8.1.1.5.4 1 .3.1 0 .3-.1.4-.1 2.2-.8 6-2.5 7.2-3 .3-.1.5-.2.7-.2.7-1.2 2.8-4.3 6.3-2.5z"/></svg>