<svg width="25" height="25" fill="#949ca6" xmlns="http://www.w3.org/2000/svg" viewBox="0 0 25 25" class="h-8 w-8 lg:h-7 lg:w-7" role="img" aria-label="Sublime logo"><path d="M19.82 20.49h-.1c-.05 0 .03 0 0 0H5.41a.88.88 0 0 1-.6-.21.9.9 0 0 1-.32-.7v-2.44a.9.9 0 0 1 .1-.43c.17-.33.45-.5.82-.5l4.35-.01c.14 0 .3 0 .44-.03.23-.06.46-.12.67-.23.44-.21.8-.52 1.05-.94.25-.41.41-.86.39-1.35a2.5 2.5 0 0 0-.45-1.48c-.13-.2-.31-.35-.48-.51L9.47 9.77l-.69-.67c-.15-.14-.3-.27-.42-.43a2.33 2.33 0 0 1 .36-3.36c.36-.3.75-.53 1.2-.65a4.17 4.17 0 0 1 1.4-.15 3.23 3.23 0 0 1 2.17.98c.28.29.48.62.61 1l.04.08c.01.03.03.05.03.08l.17.87.4 2 .36 1.92c.05.25.1.5.17.76.07.25.2.44.44.55.37.19.74.19 1.1-.01a.76.76 0 0 0 .4-.52l.2-.8.26-1.31.24-1.16.2-.95.17-.83c.03-.11.04-.23.09-.33.2-.43.69-.62 1.13-.59.23.02.42.1.6.23.27.18.4.42.4.73v12.38a.9.9 0 0 1-.4.75c-.09.06-.19.1-.28.15.24 0-.24 0 0 0Z"></path></svg>