<svg xmlns="http://www.w3.org/2000/svg" fill="currentColor" xmlns:xlink="http://www.w3.org/1999/xlink" color-interpolation-filters="sRGB" style="margin:auto" version="1.0" height="340" width="250" viewBox="0 0 340 250"><defs><path id="b" d="M51.2 9.21A43.04 43.04 0 0 0 32 4.71c-9.87 0-16.6 3.02-19.18 4.42-.96 4.25-4.28 7.68-8.75 9.03v27.68c4.48 1.36 7.8 4.8 8.75 9.05 2.53 1.4 9.19 4.4 19.18 4.4 9.36 0 16.44-3.08 19.2-4.5.98-4.21 4.3-7.6 8.73-8.95V18.16c-4.44-1.34-7.75-4.74-8.73-8.95z"/><path id="c" d="M54.98 6.67S45.88.63 32 .63C17.29.63 9 6.67 9 6.67c0 4.43-4.03 8.01-9.01 8.01v34.64c4.98 0 9.01 3.58 9.01 8 0 0 8.28 6.05 22.99 6.05 13.87 0 22.98-6.04 22.98-6.04 0-4.43 4.04-8.01 9.02-8.01V14.68c-4.98 0-9.02-3.58-9.02-8zm5.69 39.73-.27.08c-4.37 1.22-7.63 4.53-8.51 8.64l-.04.17-.15.08c-2.7 1.4-10 4.67-19.7 4.67-10.36 0-17.22-3.2-19.69-4.58l-.14-.09-.04-.16c-.86-4.15-4.12-7.5-8.53-8.73l-.27-.08V17.6l.27-.08c4.4-1.23 7.67-4.57 8.53-8.71l.03-.17.15-.08c2.5-1.38 9.45-4.6 19.69-4.6 9.7 0 17 3.27 19.7 4.67l.15.08.03.17c.9 4.1 4.15 7.42 8.52 8.64l.27.08v28.8z"/><path id="d" d="M34.3 89.28c2.02-.9 2.4-2.4 1.31-4.01l-7.73-11.4c5.95-1.43 10.63-6.85 11.51-12.65 1.56-10.37-4-13.45-13.03-13.71h-1.03C15.4 47.5 3.04 50 .23 62c-.68 2.84.17 8.1 2.34 10.55.73.82 2.05 1.26 3.34 1.26 2.43 0 4.66-1.62 2.31-5.48-.7-1.2-1.93-2.23-1.46-5.42.55-3.72 2.63-8.65 7-9.38l-3.25 27.78c-.35 2.8 1.4 4 3.51 4 2.61 0 5.74-1.81 6.13-4.65l.5-3.51 8.2 11.25c.7.96 1.81 1.4 3.04 1.4.8 0 1.61-.17 2.41-.53Zm-12.22-20.1h-.35l2.25-15.9 1.18-.06c4.62 0 6.8 3.46 6.15 7.82-.82 4.75-4.5 8.15-9.23 8.15ZM55.1 86.63c4.16-2.35 4.92-5.42 5.53-7.5 1.03-3.25 1.47-6.9 2.05-10.08l2.64 5.92c.8 1.76 1.88 2.63 3.05 2.63 1.23 0 2.55-.93 3.87-2.75l4.27-6.15-.09.73a62.61 62.61 0 0 0-.85 8.7c0 .7.03 1.38.1 1.97.26 2.75 1.57 5 4.65 5 6.62 0 11.13-8.14 11.98-13.82.06-.33.12-.76.12-1.23s-.06-.91-.29-1.18c-.06-.05-.15-.05-.24-.05-.06 0-.1 0-.17.03l-.09.02a.88.88 0 0 0-.26.44c-.82 2.14-3.49 6.7-5.95 7.27-.06 0-.09.03-.15.03-.47 0-.6-.67-.6-1.47 0-1.08.25-2.43.31-2.84.94-6.21 2.7-12.45 4.51-18.57a7 7 0 0 0 .3-2 4.68 4.68 0 0 0-4.8-4.86c-2.09 0-4.43 1.23-6.13 4.07L70.01 66c-.24.35-.5.53-.76.53-2.43 0-5.54-14.3-6.54-17.31-.7-2.08-2.28-3-4.3-3-5.77 0-14.92 7.3-16.06 14.77a17.3 17.3 0 0 0-.17 2.44c0 3.89 1.26 8.32 4.83 8.32 2.52 0 3.02-1.5 3.02-2.64 0-.56-.12-1-.18-1.17a10.51 10.51 0 0 1-.6-4.98c.5-3.46 2.71-6.42 6.34-7.12-.38 2.8-.4 23.7-6.27 25.98-2.37 1.03-4.5 1.56-4.5 2.85 0 .26.08.55.3.9a5.1 5.1 0 0 0 4.64 2.58c2.26 0 4.52-1.05 5.34-1.52Zm50.71-2.05c12.45-1.17 23.85-4.57 26-19.02 1.86-12.51-6.46-17.4-17.7-17.4-9.09 0-19.8 3.58-22.04 14.03-1.14 5.34 1.14 10.84 5.01 10.84h.12a4.06 4.06 0 0 0 3.83-5.8c-.85-1.37-1.58-3.4-1.3-5.15.48-3.34 2.07-5.16 4.67-5.8l-2.63 24.08c-.27 2.55 1.11 4.25 3.51 4.25.18 0 .35 0 .53-.03Zm5.45-6.71 4.01-22.24c5.77.62 7.71 5.66 6.92 10.99-.88 5.92-4.84 10.52-10.93 11.25Zm36.3 8c.32.06.67.08 1 .08 2.07 0 3.8-1.11 4.1-3.54 1.81 1.67 3.57 2.1 5.94 2.1 3.93 0 8-1.87 10.87-4.94a12.2 12.2 0 0 0 3.08-6.51c.64-4.16-1.79-7.61-4.63-9.9 2.02-1.67 4.22-3.9 4.42-6.5.5-6.62-7.2-9.26-12.8-9.26-8.97 0-23.5 3.3-25.66 14.38-.82 4.22 1.34 9.82 5.03 9.82 1.06 0 5.66-1.23 4.05-5.2-.59-1.4-2.79-2.56-2.26-5.46.53-3.02 2.55-4.34 5.9-4.93l-2.7 24.44c-.27 2.66 1.02 5 3.66 5.42Zm9.75-24c-.32 0-.64-.03-.96-.11l1.23-6.92a9.7 9.7 0 0 1 2.37-.35c2.14 0 3.46 1.05 3.11 3.25-.44 2.93-3.17 3.99-5.75 4.13Zm-1.23 17.55c-.79 0-1.46-.32-1.96-.94-.67-1.14-.26-4.45-.03-5.97.18-1.3.67-4.16 1.23-5.2.73-.13 1.44-.2 2.14-.2 4.28 0 6.36 2.03 5.6 6.22-.53 2.8-4.08 6.09-6.98 6.09Z" class="tp-name" data-gra="path-name"/><path id="e" d="M5 100.05h23.2v1H5zm139.46 0h23.2v1h-23.2zM32.1 97.68v2.69h1.22q.85 0 1.3-.35.45-.35.45-1.05 0-.72-.45-1-.45-.3-1.3-.3H32.1Zm4.09 6.48h-1.03l-1.74-3.05H32.1v3.05h-.91v-7.22h2.25q.55 0 1.02.1t.8.36q.34.24.53.62.18.39.18.95 0 .85-.44 1.35-.44.5-1.17.69l1.82 3.15Zm1.4 0v-7.22h4.16v.77H38.5v2.27h2.74v.78H38.5v2.62h3.36v.78h-4.27Zm6.7-2.94h2.17l-.34-1.1-.38-1.2-.35-1.23h-.04L45 98.92q-.17.6-.37 1.2l-.34 1.1Zm3.08 2.94-.68-2.2h-2.63l-.7 2.2h-.93l2.44-7.22h1.04l2.44 7.22h-.98Zm1.47-3.61q0-.87.25-1.56.24-.7.67-1.18.43-.48 1-.74.6-.26 1.3-.26.66 0 1.15.27.5.27.8.62l-.5.59q-.3-.31-.63-.5-.35-.17-.81-.17-.52 0-.94.2-.42.2-.71.58-.3.38-.47.92-.16.54-.16 1.2 0 .69.16 1.24.16.54.44.93.29.38.7.59.42.2.93.2.53 0 .92-.2.39-.21.74-.6l.52.57q-.43.49-.97.77-.54.27-1.23.27-.68 0-1.26-.25t-1-.73q-.42-.48-.66-1.18-.24-.7-.24-1.58Zm8 3.6v-6.44h-2.18v-.77h5.28v.77h-2.18v6.45h-.92Zm6.62 0v-7.21h1.08l1.4 3.88.53 1.47h.04l.5-1.47 1.39-3.88h1.08v7.22h-.87v-3.97q0-.5.04-1.07l.08-1.06h-.04l-.6 1.6-1.37 3.77h-.52l-1.4-3.77-.57-1.6h-.04l.08 1.06q.04.58.04 1.07v3.97h-.85Zm10.66.14q-.68 0-1.25-.26-.56-.27-.97-.76-.41-.5-.63-1.18-.23-.7-.23-1.57 0-.87.23-1.56.22-.68.63-1.16.4-.48.97-.73.57-.26 1.25-.26t1.25.26q.57.26.98.74.4.48.64 1.16.22.69.22 1.55 0 .87-.22 1.57-.23.69-.64 1.18-.41.49-.98.76-.57.26-1.25.26Zm0-.8q.49 0 .88-.21t.67-.6q.28-.4.43-.93.16-.55.16-1.23 0-.67-.16-1.21-.15-.54-.43-.91-.28-.38-.67-.58-.4-.2-.88-.2t-.87.2q-.4.2-.67.58-.28.37-.44.9-.15.55-.15 1.22 0 .68.15 1.23.16.54.44.93t.67.6q.39.2.87.2Zm5.85.67-2.31-7.22h.98l1.16 3.9q.2.65.34 1.2.15.55.36 1.19h.05l.35-1.2.34-1.2 1.15-3.9h.94l-2.3 7.23h-1.06Zm4.35 0v-7.22h.9v7.22h-.9Zm2.89 0v-7.22h4.16v.77h-3.25v2.27h2.74v.78h-2.74v2.62h3.36v.78H87.2Zm8.02 0v-7.22h1.8q1.68 0 2.55.93.86.92.86 2.65 0 .86-.22 1.53-.22.68-.64 1.15-.43.47-1.06.7-.63.26-1.44.26h-1.85Zm.9-.75h.84q1.26 0 1.9-.76.63-.76.63-2.13 0-1.38-.63-2.1-.64-.73-1.9-.73h-.83v5.72Zm6.66-2.2h2.16l-.34-1.1q-.2-.6-.37-1.2l-.35-1.22h-.05q-.16.63-.34 1.23-.17.6-.37 1.2l-.34 1.1Zm3.08 2.95-.68-2.2h-2.63l-.7 2.2h-.93l2.44-7.22h1.03l2.45 7.22h-.98Zm3.06 0V97.7h-2.18v-.77h5.28v.77h-2.18v6.45h-.92Zm4.86-2.94h2.16l-.34-1.1q-.2-.6-.37-1.2l-.35-1.23h-.05q-.16.63-.34 1.23-.17.6-.37 1.2l-.34 1.1Zm3.08 2.94-.68-2.2h-2.63l-.7 2.2h-.93l2.44-7.22h1.03l2.45 7.22h-.98Zm2 0v-7.22H121q.55 0 1 .1.47.1.79.3.33.22.5.56.19.33.19.8 0 .54-.31.98-.31.43-.94.6v.04q.79.12 1.23.55.44.43.44 1.18 0 .53-.2.92-.2.4-.56.66-.36.27-.87.4t-1.11.13h-2.3Zm.9-4.14h1.08q.93 0 1.34-.32.4-.31.4-.92 0-.6-.43-.85-.42-.26-1.27-.26h-1.11v2.35Zm0 3.4h1.27q.93 0 1.45-.33.52-.35.52-1.1 0-.66-.51-.97-.51-.31-1.46-.31h-1.26v2.72Zm6.47-2.2h2.17l-.34-1.1-.38-1.2-.35-1.23h-.04l-.35 1.23q-.17.6-.37 1.2l-.34 1.1Zm3.08 2.94-.68-2.2H126l-.7 2.2h-.93l2.44-7.22h1.04l2.44 7.22h-.98Zm1.47-.93.55-.64q.39.4.9.65.53.25 1.09.25.72 0 1.12-.33.39-.32.39-.85 0-.27-.1-.47-.1-.2-.24-.33-.16-.13-.38-.24l-.48-.23-1.03-.45q-.25-.11-.52-.27-.26-.15-.47-.37-.21-.22-.34-.53-.13-.3-.13-.7 0-.4.17-.75t.47-.61q.3-.26.7-.4.43-.15.92-.15.65 0 1.2.25.55.25.94.64l-.5.6q-.33-.32-.73-.5-.4-.18-.91-.18-.6 0-.97.28t-.37.77q0 .27.1.45t.28.32q.18.13.39.24.2.1.43.19l1.02.44q.3.13.58.3.28.17.48.4.2.22.3.53.13.3.13.7 0 .42-.17.8-.17.37-.5.65-.31.28-.76.44-.45.16-1.03.16-.76 0-1.4-.28-.65-.3-1.13-.78Zm6.4.93v-7.22h4.16v.77h-3.24v2.27h2.74v.78h-2.74v2.62h3.35v.78h-4.26Z"/></defs><rect width="100%" height="100%" fill="none" class="background"/><rect width="100%" height="100%" fill="url(#watermark)" class="watermarklayer"/><g fill="currentColor" class="iconmbgsvg" mask="url(#a)" transform="translate(83.67 50.25)"><g transform="translate(10.08)"><path fill="none" d="M0 0h152.5v149.51H0z" class="image-rect"/><svg width="152.5" height="149.51" class="image-svg-svg primary" overflow="visible"><svg xmlns="http://www.w3.org/2000/svg" xmlns:xlink="http://www.w3.org/1999/xlink" xml:space="preserve" viewBox="0 .63 64 62.74"><use xlink:href="#b"/><use xlink:href="#c"/></svg></svg></g><use xlink:href="#d" class="tp-name" data-gra="path-name"/><use xlink:href="#e" fill="currentColor" class="tp-slogan" data-gra="path-slogan"/></g><mask id="a"><g fill="currentColor" transform="translate(10.08)"><path fill-opacity="0" stroke-width="2" d="M0 0h152.5v149.51H0z" class="image-rect"/><svg width="152.5" height="149.51" class="image-svg-svg primary" overflow="visible"><svg xmlns="http://www.w3.org/2000/svg" xmlns:xlink="http://www.w3.org/1999/xlink" xml:space="preserve" viewBox="0 .63 64 62.74"><use xlink:href="#b"/><use xlink:href="#c"/></svg></svg></g><use xlink:href="#d" class="tp-name" data-gra="path-name"/><use xlink:href="#e" class="tp-slogan" data-gra="path-slogan"/></mask></svg>